<?xml version="1.0" encoding="UTF-8"?>
<svg xmlns="http://www.w3.org/2000/svg" xmlns:xlink="http://www.w3.org/1999/xlink" width="1364pt" height="308pt" viewBox="0 0 1364 308" version="1.1">
<g id="surface1">
<path style=" stroke:none;fill-rule:nonzero;fill:rgb(98.826599%,98.826599%,98.826599%);fill-opacity:1;" d="M 0 0 L 984.5 0 C 1011.050781 11.730469 1035.660156 28.210938 1055.910156 49.078125 C 1067.210938 61.128906 1077.289063 74.851563 1082.441406 90.699219 C 1087.640625 107.398438 1086.050781 125.480469 1081.109375 142.039063 C 1073.558594 166.320313 1059.480469 188.019531 1043.449219 207.539063 C 1012.679688 245.417969 974.460938 276.128906 937.140625 307.210938 C 950.101563 307.28125 963.070313 307.601563 976.03125 307.269531 C 981.75 306.988281 987.488281 307.519531 993.199219 307.019531 C 998.039063 304.480469 1002.109375 300.667969 1006.671875 297.648438 C 1044.441406 270.667969 1082.269531 243.128906 1114.039063 209.050781 C 1128.480469 193.421875 1141.699219 176.429688 1151.390625 157.421875 C 1160.140625 140.539063 1165.519531 121.75 1165.398438 102.640625 C 1170.050781 116.5 1170.710938 131.570313 1167.441406 145.808594 C 1162.570313 167.21875 1150.851563 186.359375 1137.320313 203.371094 C 1104.21875 244.300781 1061.390625 275.582031 1019.789063 307.21875 C 1134.53125 307.199219 1249.261719 307.179688 1364 307.230469 L 1364 308 L 0 308 L 0 0 "/>
<path style=" stroke:none;fill-rule:nonzero;fill:rgb(84.764099%,16.868591%,13.719177%);fill-opacity:1;" d="M 984.5 0 L 1049.441406 0 C 1052.390625 2.53125 1056.21875 3.441406 1059.75 4.859375 C 1064.949219 6.980469 1070.289063 8.808594 1075.308594 11.351563 C 1076.078125 11.578125 1077.628906 12.039063 1078.410156 12.269531 C 1078.671875 12.558594 1079.199219 13.160156 1079.460938 13.460938 C 1080.839844 13.820313 1082.230469 14.179688 1083.640625 14.539063 C 1083.929688 14.890625 1084.5 15.578125 1084.789063 15.929688 C 1085.460938 16.058594 1086.808594 16.328125 1087.488281 16.460938 C 1089 17.261719 1090.53125 18 1092.109375 18.730469 C 1092.28125 18.988281 1092.609375 19.5 1092.78125 19.761719 C 1093.578125 19.910156 1095.179688 20.199219 1095.96875 20.351563 C 1096.191406 20.648438 1096.628906 21.238281 1096.851563 21.539063 C 1106.339844 26.089844 1115.289063 31.75 1123.851563 37.859375 C 1137.25 48.371094 1149.988281 61.339844 1155.050781 78.019531 C 1155.070313 77.351563 1155.089844 76.671875 1155.128906 76 C 1158.578125 88.679688 1161.050781 102.050781 1158.621094 115.148438 C 1155.28125 135.800781 1145.488281 154.761719 1133.738281 171.828125 C 1112.960938 201.488281 1086.011719 226.210938 1057.828125 248.699219 C 1036.25 265.871094 1013.53125 281.53125 990.46875 296.640625 C 987.21875 298.800781 983.980469 300.988281 980.519531 302.789063 C 980.179688 303.128906 979.5 303.789063 979.160156 304.128906 C 978.578125 304.261719 977.421875 304.511719 976.839844 304.640625 C 976.640625 305.300781 976.238281 306.609375 976.03125 307.269531 C 963.070313 307.601563 950.101563 307.28125 937.140625 307.210938 C 974.460938 276.128906 1012.679688 245.417969 1043.449219 207.539063 C 1059.480469 188.019531 1073.558594 166.320313 1081.109375 142.039063 C 1086.050781 125.480469 1087.640625 107.398438 1082.441406 90.699219 C 1077.289063 74.851563 1067.210938 61.128906 1055.910156 49.078125 C 1035.660156 28.210938 1011.050781 11.730469 984.5 0 "/>
<path style=" stroke:none;fill-rule:nonzero;fill:rgb(2.745056%,15.696716%,49.804688%);fill-opacity:1;" d="M 1049.441406 0 L 1364 0 L 1364 307.230469 C 1249.261719 307.179688 1134.53125 307.199219 1019.789063 307.21875 C 1061.390625 275.582031 1104.21875 244.300781 1137.320313 203.371094 C 1150.851563 186.359375 1162.570313 167.21875 1167.441406 145.808594 C 1170.710938 131.570313 1170.050781 116.5 1165.398438 102.640625 C 1165.519531 121.75 1160.140625 140.539063 1151.390625 157.421875 C 1141.699219 176.429688 1128.480469 193.421875 1114.039063 209.050781 C 1082.269531 243.128906 1044.441406 270.667969 1006.671875 297.648438 C 1002.109375 300.667969 998.039063 304.480469 993.199219 307.019531 C 987.488281 307.519531 981.75 306.988281 976.03125 307.269531 C 976.238281 306.609375 976.640625 305.300781 976.839844 304.640625 C 977.421875 304.511719 978.578125 304.261719 979.160156 304.128906 C 979.5 303.789063 980.179688 303.128906 980.519531 302.789063 C 983.980469 300.988281 987.21875 298.800781 990.46875 296.640625 C 1013.53125 281.53125 1036.25 265.871094 1057.828125 248.699219 C 1086.011719 226.210938 1112.960938 201.488281 1133.738281 171.828125 C 1145.488281 154.761719 1155.28125 135.800781 1158.621094 115.148438 C 1161.050781 102.050781 1158.578125 88.679688 1155.128906 76 C 1155.089844 76.671875 1155.070313 77.351563 1155.050781 78.019531 C 1149.988281 61.339844 1137.25 48.371094 1123.851563 37.859375 C 1115.289063 31.75 1106.339844 26.089844 1096.851563 21.539063 C 1096.628906 21.238281 1096.191406 20.648438 1095.96875 20.351563 C 1095.179688 20.199219 1093.578125 19.910156 1092.78125 19.761719 C 1092.609375 19.5 1092.28125 18.988281 1092.109375 18.730469 C 1090.53125 18 1089 17.261719 1087.488281 16.460938 C 1086.808594 16.328125 1085.460938 16.058594 1084.789063 15.929688 C 1084.5 15.578125 1083.929688 14.890625 1083.640625 14.539063 C 1082.230469 14.179688 1080.839844 13.820313 1079.460938 13.460938 C 1079.199219 13.160156 1078.671875 12.558594 1078.410156 12.269531 C 1077.628906 12.039063 1076.078125 11.578125 1075.308594 11.351563 C 1070.289063 8.808594 1064.949219 6.980469 1059.75 4.859375 C 1056.21875 3.441406 1052.390625 2.53125 1049.441406 0 "/>
<path style=" stroke:none;fill-rule:nonzero;fill:rgb(2.745056%,15.696716%,49.804688%);fill-opacity:1;" d="M 838.800781 14.828125 C 846.21875 10.980469 855.101563 10.71875 863.171875 12.289063 C 867.398438 13.089844 872.03125 17.128906 870.308594 21.820313 C 869.050781 24.710938 869.25 27.820313 869.488281 30.890625 C 871.28125 33.679688 873.101563 36.460938 874.871094 39.269531 C 873.691406 40.039063 872.53125 40.789063 871.359375 41.550781 C 872.308594 43.398438 872.28125 45.5 872.648438 47.511719 C 873.039063 49.261719 874.289063 51.238281 872.949219 52.898438 C 869.820313 56.640625 863.679688 54.480469 860.609375 58.140625 C 866.269531 61.320313 871.050781 66.089844 873.570313 72.140625 C 878.210938 82.738281 879.980469 94.308594 883.910156 105.171875 C 894.949219 101.601563 905.980469 97.988281 916.988281 94.308594 C 919.300781 89.589844 925.179688 87.230469 930.109375 89.109375 C 935.109375 90.828125 937.289063 97.359375 934.949219 101.949219 C 933.21875 105.039063 929.230469 106.058594 925.960938 105.171875 C 923.148438 104.449219 920.261719 105.269531 917.859375 106.75 C 906.871094 113.191406 895.808594 119.488281 884.828125 125.929688 C 881.109375 128.101563 876.371094 129.550781 872.230469 127.699219 C 868.859375 126.269531 866.851563 123.011719 865.148438 119.949219 C 861.769531 113.691406 858.351563 107.449219 854.941406 101.210938 C 851.808594 110.269531 848.398438 119.21875 845.28125 128.28125 C 843.859375 131.480469 845.898438 134.710938 848.371094 136.671875 C 857.308594 144.03125 868.929688 147.589844 877.160156 155.921875 C 882.019531 160.949219 882.441406 168.378906 882.878906 174.980469 C 884.011719 190.859375 885.148438 206.730469 886.421875 222.589844 C 885.078125 222.640625 883.75 222.679688 882.429688 222.730469 C 882.75 224.089844 883.089844 225.460938 883.449219 226.832031 C 888.871094 228.761719 893.5 232.359375 898.898438 234.332031 C 901.121094 235.179688 903.679688 235.050781 905.761719 236.28125 C 907.53125 238.648438 905.511719 242.351563 902.941406 243.238281 C 896.539063 244.699219 890.320313 241.832031 884 241.351563 C 878.53125 240.871094 873.148438 243.308594 867.71875 242.261719 C 864.859375 241.761719 863.410156 238.550781 864.191406 235.929688 C 865.089844 232.050781 866.980469 227.738281 864.050781 224.210938 C 863.398438 224.28125 862.089844 224.410156 861.441406 224.480469 C 860.359375 220.039063 859.070313 215.628906 858.421875 211.101563 C 856.628906 201.421875 857.179688 191.441406 855.121094 181.820313 C 854.511719 178.53125 851.28125 176.988281 848.570313 175.699219 C 840.179688 172.03125 830.78125 170.839844 822.941406 165.910156 C 811.980469 178.511719 801.210938 191.488281 787.941406 201.769531 C 781.769531 206.648438 774.71875 210.261719 767.519531 213.320313 C 760.238281 216.429688 753.410156 220.449219 746.578125 224.410156 C 744.78125 223.21875 743.019531 222.011719 741.238281 220.820313 C 731.851563 227.191406 720 229.570313 711.96875 237.941406 C 708.859375 240.75 706.878906 245.691406 702.089844 245.851563 C 698.429688 246.371094 696.738281 241.929688 697.289063 238.960938 C 697.398438 234.601563 700.488281 231.261719 703.679688 228.660156 C 708.890625 224.320313 710.921875 217.667969 713.78125 211.789063 C 717.21875 205.730469 724.949219 205.148438 731.121094 204.199219 C 731.109375 202.800781 731.109375 201.410156 731.128906 200.011719 C 735.929688 197.351563 740.800781 194.789063 746.078125 193.179688 C 745.449219 191.25 744.359375 189.539063 743.050781 188.019531 C 746.578125 186.910156 750.25 186.390625 753.878906 185.71875 C 752.371094 184.328125 750.75 183.078125 749.039063 181.960938 C 753.308594 180.050781 758 179.839844 762.621094 180.039063 C 760.691406 177.609375 757.730469 176.691406 754.839844 175.988281 C 758.820313 173.359375 763.75 174.191406 768.238281 174.210938 C 767.511719 170.359375 763.238281 170 760.140625 169.371094 C 764.480469 167.28125 769.191406 166.210938 774.011719 166.140625 C 771.601563 164.351563 768.671875 163.671875 765.789063 163.078125 C 768.851563 159.441406 773.828125 159.191406 778.21875 159.148438 C 776.140625 157.171875 773.371094 156.46875 770.679688 155.800781 C 774.210938 152.890625 778.871094 152.800781 783.210938 152.558594 C 781.101563 151.039063 778.5 150.679688 775.988281 150.390625 C 776.589844 149.351563 777.199219 148.308594 777.820313 147.269531 C 767.070313 142.460938 755.671875 138.191406 746.851563 130.128906 C 743.03125 126.878906 740.539063 121.910156 741.628906 116.839844 C 743.988281 120.03125 746.871094 122.910156 750.601563 124.441406 C 764.71875 130.761719 778.878906 137.339844 793.980469 140.960938 C 802.601563 143.070313 811.78125 142.328125 820.128906 139.421875 C 826.96875 136.660156 830.859375 129.691406 832.910156 122.960938 C 834.511719 116.859375 834.730469 109.988281 831.851563 104.230469 C 826.949219 98.308594 819.210938 96.101563 812.058594 94.261719 C 810.460938 93.570313 808.179688 93.78125 807.21875 92.089844 C 808.371094 92.28125 810.660156 92.660156 811.800781 92.851563 C 811.800781 92.121094 811.78125 90.671875 811.769531 89.941406 C 808.480469 89.898438 805.191406 90.191406 801.921875 89.871094 C 800.320313 89.570313 799.898438 87.570313 798.960938 86.53125 C 803.21875 86.140625 807.511719 86.25 811.800781 86.261719 C 811.789063 85.558594 811.78125 84.160156 811.769531 83.46875 C 807.539063 83.460938 803.328125 83.441406 799.109375 83.511719 C 798.878906 82.359375 798.660156 81.210938 798.449219 80.058594 C 802.878906 79.941406 807.320313 79.988281 811.75 79.949219 C 811.769531 79.269531 811.808594 77.921875 811.828125 77.238281 C 807.210938 77.199219 802.589844 77.210938 797.980469 77.199219 C 797.75 75.730469 797.539063 74.269531 797.339844 72.800781 C 802.128906 72.789063 806.921875 72.78125 811.71875 72.789063 C 811.761719 72.109375 811.820313 70.75 811.859375 70.078125 C 805.898438 69.988281 799.929688 70.199219 794.011719 69.429688 C 785.679688 70.308594 777.308594 69.980469 768.949219 69.988281 C 769.421875 68.710938 769.910156 67.429688 770.398438 66.160156 C 784.210938 65.941406 798.019531 66.160156 811.820313 66.03125 C 811.800781 65.339844 811.769531 63.960938 811.75 63.28125 C 798.480469 63.230469 785.199219 63.359375 771.941406 63.210938 C 775.941406 56.660156 783.570313 53.5 790.988281 53.160156 C 806.441406 52.21875 821.890625 51.101563 837.351563 50.21875 C 837.511719 48.539063 837.988281 46.710938 836.710938 45.320313 C 833.550781 40.75 830.339844 35.800781 830.179688 30.050781 C 829.550781 23.800781 833.238281 17.609375 838.800781 14.828125 "/>
<path style=" stroke:none;fill-rule:nonzero;fill:rgb(2.745056%,15.696716%,49.804688%);fill-opacity:1;" d="M 766.648438 77.191406 C 767.078125 75.71875 767.539063 74.261719 767.988281 72.789063 C 774.710938 72.789063 781.441406 72.78125 788.171875 72.828125 C 787.460938 74.28125 786.761719 75.738281 786.070313 77.199219 C 779.601563 77.199219 773.121094 77.21875 766.648438 77.191406 "/>
<path style=" stroke:none;fill-rule:nonzero;fill:rgb(2.745056%,15.696716%,49.804688%);fill-opacity:1;" d="M 766.460938 81.539063 C 770.5 80.628906 774.808594 81.390625 778.960938 81.128906 C 781.148438 81.371094 783.980469 80.390625 785.589844 82.390625 C 792.640625 89.488281 801.210938 95.238281 810.859375 98.101563 C 816.441406 99.871094 823.058594 100.21875 827.21875 104.859375 C 831.429688 109.449219 831.078125 116.351563 829.398438 121.941406 C 828.171875 127.589844 824.859375 132.941406 819.660156 135.691406 C 812.75 139.511719 804.511719 139.011719 796.96875 137.941406 C 780 135 764.179688 127.691406 748.890625 120.039063 C 743.601563 117.351563 742.21875 110.488281 744.480469 105.320313 C 748.539063 95.011719 757.289063 87.328125 766.460938 81.539063 "/>
<path style=" stroke:none;fill-rule:nonzero;fill:rgb(98.826599%,98.826599%,98.826599%);fill-opacity:1;" d="M 767.148438 89.449219 C 770.488281 90.769531 774.171875 91.640625 777.011719 93.96875 C 779.109375 96.320313 776.621094 99.261719 775.488281 101.460938 C 772.53125 105.828125 770.339844 110.929688 766.421875 114.539063 C 761.941406 115.820313 757.699219 112.621094 753.539063 111.359375 C 758.089844 104.058594 762.691406 96.800781 767.148438 89.449219 "/>
<path style=" stroke:none;fill-rule:nonzero;fill:rgb(2.745056%,15.696716%,49.804688%);fill-opacity:1;" d="M 770.371094 95.269531 C 770.71875 95.488281 771.421875 95.941406 771.769531 96.171875 C 769.628906 100.121094 767.210938 103.921875 764.75 107.679688 C 764 109.039063 762.679688 109.871094 761.28125 110.441406 C 763.871094 105.128906 767.371094 100.339844 770.371094 95.269531 "/>
<path style=" stroke:none;fill-rule:nonzero;fill:rgb(98.826599%,98.826599%,98.826599%);fill-opacity:1;" d="M 780 99.78125 C 780.878906 98.289063 781.761719 96.808594 782.660156 95.339844 C 786.691406 96.820313 790.679688 98.410156 794.679688 99.949219 C 793.769531 101.421875 792.859375 102.890625 791.96875 104.359375 C 790.890625 103.929688 789.820313 103.5 788.769531 103.070313 C 784.988281 108.738281 781.730469 114.738281 777.851563 120.328125 C 776 120.578125 774.101563 119.078125 772.28125 118.578125 C 775.898438 112.710938 779.601563 106.890625 783.191406 101 C 782.121094 100.589844 781.058594 100.191406 780 99.78125 "/>
<path style=" stroke:none;fill-rule:nonzero;fill:rgb(98.826599%,98.826599%,98.826599%);fill-opacity:1;" d="M 797.5 101.160156 C 800.820313 102.519531 804.460938 103.410156 807.269531 105.730469 C 809.128906 107.421875 807.640625 109.910156 806.671875 111.640625 C 803.871094 116.160156 801.300781 120.851563 798.019531 125.039063 C 796.96875 126.609375 794.859375 127.039063 793.148438 126.5 C 789.929688 125.679688 786.878906 124.328125 783.800781 123.128906 C 788.398438 115.820313 792.898438 108.460938 797.5 101.160156 "/>
<path style=" stroke:none;fill-rule:nonzero;fill:rgb(2.745056%,15.696716%,49.804688%);fill-opacity:1;" d="M 796.941406 112.921875 C 798.371094 110.75 799.398438 108.078125 801.839844 106.808594 C 801.410156 109.910156 799.410156 112.390625 797.871094 115 C 796.179688 117.660156 794.699219 120.621094 791.980469 122.378906 C 792.710938 118.808594 795.21875 116.039063 796.941406 112.921875 "/>
<path style=" stroke:none;fill-rule:nonzero;fill:rgb(98.826599%,98.826599%,98.826599%);fill-opacity:1;" d="M 811.648438 110.589844 C 815 107.191406 821.328125 108.101563 823.769531 112.140625 C 824.820313 115.710938 821.910156 118.71875 820.359375 121.648438 C 818.539063 120.941406 816.71875 120.238281 814.910156 119.539063 C 816.289063 117.308594 817.648438 115.050781 818.671875 112.621094 C 816.089844 112.640625 815.191406 115.238281 813.941406 116.96875 C 811.679688 120.808594 808.890625 124.390625 807.421875 128.640625 C 810.171875 128.03125 811.179688 125.269531 812.578125 123.179688 C 814.441406 123.851563 816.289063 124.558594 818.140625 125.289063 C 816.261719 128.050781 814.488281 131.53125 810.949219 132.328125 C 807.550781 133.320313 802.839844 131.691406 801.859375 128.019531 C 801.871094 125.050781 803.738281 122.589844 805.171875 120.128906 C 807.269531 116.921875 809.058594 113.449219 811.648438 110.589844 "/>
<path style=" stroke:none;fill-rule:nonzero;fill:rgb(2.745056%,15.696716%,49.804688%);fill-opacity:1;" d="M 229.128906 113.761719 C 234.851563 113.058594 240.261719 110.699219 245.980469 110.148438 C 281.558594 110.121094 317.140625 110.121094 352.71875 110.148438 C 348.789063 121.578125 344.769531 132.988281 340.839844 144.421875 C 330.699219 144.390625 320.550781 143.988281 310.410156 144.070313 C 299.050781 176.160156 287.421875 208.160156 276.050781 240.238281 C 260.570313 240.269531 245.101563 240.167969 229.621094 240.289063 C 229.261719 240.011719 228.53125 239.460938 228.171875 239.191406 C 224.378906 239.019531 220.621094 238.410156 217.03125 237.199219 C 210.441406 234.769531 203.320313 235.730469 196.449219 235.460938 C 196.558594 235.082031 196.769531 234.308594 196.871094 233.929688 C 203.898438 233.460938 211.199219 234.640625 217.960938 232.160156 C 222.539063 230.550781 227.351563 229.75 232.210938 229.890625 C 232.519531 228.898438 232.828125 227.910156 233.148438 226.917969 C 229.03125 226.839844 224.921875 226.308594 221.019531 224.949219 C 214.300781 222.390625 207.011719 223.761719 200.011719 223.039063 C 200.789063 222.089844 201.761719 221.621094 202.929688 221.621094 C 208.941406 221.230469 215.171875 222.300781 220.980469 220.238281 C 226 218.46875 231.261719 217.460938 236.609375 217.667969 C 236.878906 217.050781 237.410156 215.832031 237.679688 215.210938 C 233.308594 215.058594 229.089844 213.929688 224.941406 212.667969 C 218.410156 210.628906 211.488281 211.941406 204.808594 210.941406 C 205.761719 210.390625 206.738281 209.71875 207.890625 209.800781 C 213.539063 209.5 219.308594 210.261719 224.828125 208.710938 C 230.070313 207.351563 235.371094 206.011719 240.808594 205.839844 C 241.179688 205.078125 241.550781 204.320313 241.921875 203.570313 C 237.609375 202.980469 233.371094 201.949219 229.148438 200.910156 C 223.03125 199.25 216.648438 200.089844 210.398438 199.738281 C 210.539063 199.359375 210.839844 198.601563 210.980469 198.21875 C 217.769531 197.929688 224.808594 198.839844 231.359375 196.570313 C 235.789063 194.921875 240.480469 194.351563 245.191406 194.480469 C 245.53125 193.421875 245.878906 192.359375 246.238281 191.300781 C 240.980469 190.96875 236.121094 188.820313 231.011719 187.808594 C 225.808594 187.21875 220.570313 187.550781 215.359375 187.390625 C 215.5 187.011719 215.769531 186.25 215.910156 185.871094 C 219.898438 185.769531 223.878906 185.710938 227.859375 185.75 C 227.898438 185.441406 227.96875 184.839844 228.011719 184.53125 C 228.058594 184.878906 228.160156 185.570313 228.210938 185.921875 C 235.398438 184.910156 242.179688 181.929688 249.519531 181.75 C 249.820313 181.308594 250.429688 180.421875 250.730469 179.980469 C 247.449219 179.660156 244.191406 179.03125 241.140625 177.75 C 234.328125 174.878906 226.789063 176.910156 219.71875 175.449219 C 221.539063 174.148438 223.910156 174.53125 226.011719 174.421875 C 231.011719 174.460938 236.109375 174.640625 240.890625 172.929688 C 245.019531 171.429688 249.359375 170.910156 253.699219 170.5 C 253.980469 169.988281 254.519531 168.960938 254.800781 168.449219 C 249.03125 167.710938 243.929688 164.210938 238.039063 164.230469 C 233.628906 164.019531 229.199219 164.089844 224.820313 163.511719 C 225.128906 163.21875 225.75 162.648438 226.058594 162.371094 C 232.761719 161.578125 239.851563 162.949219 246.21875 160.179688 C 250.109375 158.53125 254.300781 157.910156 258.488281 157.710938 C 258.738281 157.050781 259.25 155.730469 259.5 155.070313 C 254.988281 154.640625 250.789063 152.960938 246.46875 151.738281 C 240.871094 150.828125 235.121094 151.699219 229.53125 150.601563 C 230.53125 149.898438 231.660156 149.441406 232.898438 149.519531 C 239.398438 149.148438 246.160156 149.898438 252.371094 147.480469 C 256.03125 145.898438 260.128906 146.070313 263.839844 144.71875 C 253.589844 143.878906 243.269531 144.519531 233 143.890625 C 228.351563 142.511719 223.871094 140.371094 218.988281 139.910156 C 214.230469 139.488281 209.429688 139.851563 204.679688 139.308594 C 207.898438 136.980469 212.371094 138.539063 216.089844 137.898438 C 222.558594 138.210938 228.410156 135.109375 234.710938 134.320313 C 235.121094 133.25 235.53125 132.191406 235.941406 131.128906 C 233.101563 130.210938 230.300781 129.140625 227.421875 128.351563 C 221.910156 127 216.160156 128.019531 210.601563 127.25 C 210.289063 127.019531 209.679688 126.570313 209.378906 126.339844 C 214.949219 125.691406 220.589844 126.320313 226.148438 125.609375 C 230.460938 124.710938 234.621094 123.140625 238.96875 122.390625 C 239.390625 121.230469 239.800781 120.070313 240.210938 118.898438 C 236.519531 117.851563 232.921875 116.308594 229.058594 115.980469 C 224.039063 115.519531 218.980469 115.691406 213.96875 115.128906 C 214.878906 114.558594 215.699219 113.570313 216.941406 113.871094 C 221 113.710938 225.070313 114.070313 229.128906 113.761719 "/>
<path style=" stroke:none;fill-rule:nonzero;fill:rgb(2.745056%,15.696716%,49.804688%);fill-opacity:1;" d="M 53.960938 114.351563 C 62.898438 115.21875 71.179688 110.828125 80.03125 110.578125 C 102 110.570313 123.960938 110.621094 145.929688 110.558594 C 154.839844 110.5 163.960938 111.25 172.28125 114.648438 C 180.390625 118.21875 188.449219 123.199219 193.230469 130.878906 C 195.871094 136.230469 198.289063 141.949219 198.398438 148.011719 C 198.488281 164.230469 193.921875 180.050781 187.730469 194.898438 C 182.070313 208.390625 171.691406 219.609375 159.410156 227.390625 C 144.589844 236.269531 127.160156 240.128906 109.988281 240.128906 C 85.011719 240.390625 60.019531 240.148438 35.03125 240.25 C 29.582031 240.371094 24.230469 239.160156 19.070313 237.5 C 13.21875 235.628906 6.980469 237.082031 1.019531 236.089844 L 0.0117188 234.980469 C 7.050781 234.128906 14.378906 235.710938 21.199219 233.28125 C 25.550781 231.890625 30 230.738281 34.601563 230.769531 C 34.832031 230.03125 35.289063 228.550781 35.53125 227.808594 C 31.378906 227.71875 27.359375 226.730469 23.441406 225.441406 C 17.238281 223.261719 10.558594 224.96875 4.199219 223.820313 C 4.339844 223.550781 4.601563 223.011719 4.738281 222.730469 C 11.460938 222 18.449219 223.378906 24.960938 221.039063 C 29.449219 219.519531 34.101563 218.601563 38.839844 218.429688 C 39.101563 217.859375 39.621094 216.730469 39.871094 216.160156 C 36.011719 215.660156 32.230469 214.71875 28.488281 213.640625 C 22 211.609375 15.121094 212.761719 8.460938 211.949219 C 9.53125 210.371094 11.441406 210.789063 13.019531 210.679688 C 17.949219 210.46875 22.988281 211.140625 27.800781 209.761719 C 32.832031 208.410156 37.898438 207.171875 43.101563 206.679688 C 43.410156 205.890625 43.710938 205.121094 44.019531 204.339844 C 40.070313 203.609375 36.140625 202.78125 32.25 201.808594 C 26.300781 200.25 20.101563 200.960938 14.019531 200.699219 L 14.199219 199.078125 C 19.949219 198.910156 25.789063 199.378906 31.46875 198.308594 C 36.589844 196.800781 41.75 195.03125 47.179688 195.371094 C 47.570313 194.300781 47.96875 193.230469 48.359375 192.171875 C 43.75 191.671875 39.390625 190.019531 34.910156 188.921875 C 29.371094 188 23.710938 188.558594 18.121094 188.289063 C 18.300781 187.960938 18.648438 187.300781 18.832031 186.96875 C 25.339844 186.121094 32.128906 187.558594 38.46875 185.28125 C 42.691406 183.78125 47.128906 183.171875 51.558594 182.671875 C 51.832031 182.21875 52.371094 181.320313 52.640625 180.871094 C 48.179688 180.550781 44.128906 178.621094 39.878906 177.488281 C 34.128906 176.730469 28.289063 177.171875 22.519531 176.628906 C 22.917969 176.351563 23.710938 175.769531 24.101563 175.488281 C 30.359375 174.921875 36.859375 176.121094 42.917969 173.960938 C 47.050781 172.628906 51.308594 171.621094 55.691406 171.589844 C 55.96875 170.851563 56.261719 170.101563 56.539063 169.359375 C 51.890625 168.429688 47.621094 166.21875 42.960938 165.351563 C 37.78125 164.871094 32.570313 164.988281 27.378906 164.578125 C 27.519531 164.230469 27.789063 163.539063 27.917969 163.191406 C 34.699219 162.5 41.832031 163.890625 48.269531 161.101563 C 52.128906 159.488281 56.28125 158.871094 60.429688 158.589844 C 60.628906 157.929688 61.03125 156.601563 61.230469 155.929688 C 56.832031 155.449219 52.691406 153.878906 48.460938 152.679688 C 42.839844 151.769531 37.089844 152.53125 31.460938 151.621094 C 31.859375 151.371094 32.660156 150.890625 33.058594 150.640625 C 40.03125 149.851563 47.332031 151.019531 54.039063 148.449219 C 57.390625 147.101563 60.96875 146.671875 64.511719 146.160156 C 64.832031 145.648438 65.449219 144.621094 65.769531 144.101563 C 62.25 143.421875 58.789063 142.5 55.390625 141.371094 C 49.160156 139.359375 42.539063 140.671875 36.148438 139.75 C 37.371094 138.351563 39.289063 138.578125 40.941406 138.488281 C 46.320313 138.308594 51.871094 138.769531 57.050781 136.980469 C 60.878906 135.609375 64.878906 134.839844 68.941406 134.640625 C 69.269531 133.699219 69.589844 132.769531 69.917969 131.839844 C 64.488281 131.128906 59.558594 128.210938 54.03125 128.171875 C 49.589844 127.898438 45.121094 128.179688 40.699219 127.570313 C 44.082031 125.519531 48.300781 126.828125 52.039063 126.421875 C 59.390625 126.828125 66.011719 122.941406 73.261719 122.519531 C 73.488281 121.859375 73.929688 120.539063 74.160156 119.878906 C 70.289063 119.121094 66.589844 117.769531 62.808594 116.738281 C 57.039063 115.851563 51.160156 116.339844 45.378906 115.5 C 47.648438 113.300781 51.140625 114.691406 53.960938 114.351563 "/>
<path style=" stroke:none;fill-rule:nonzero;fill:rgb(2.745056%,15.696716%,49.804688%);fill-opacity:1;" d="M 376.960938 114.339844 C 385.898438 115.148438 394.140625 110.558594 403.03125 110.578125 C 425.691406 110.589844 448.351563 110.578125 471.019531 110.589844 C 482.398438 110.511719 494.070313 112.929688 503.640625 119.351563 C 509.199219 122.96875 514.609375 127.558594 517.109375 133.890625 C 518.988281 138.378906 520.851563 143.03125 520.808594 147.96875 C 520.78125 158.800781 518.988281 169.609375 515.601563 179.890625 C 512.160156 190.75 508.109375 201.769531 500.710938 210.621094 C 491.78125 221.941406 479.410156 230.339844 465.730469 234.808594 C 454.28125 238.859375 442.078125 240.191406 430 240.167969 C 409.691406 240.332031 389.390625 240.191406 369.078125 240.238281 C 360.640625 240.128906 351.96875 240.96875 343.828125 238.199219 C 337.21875 235.667969 330.050781 236.667969 323.148438 236.359375 C 323.199219 235.980469 323.308594 235.21875 323.371094 234.839844 C 328.539063 234.589844 333.730469 234.917969 338.890625 234.441406 C 344.929688 233.238281 350.691406 230.601563 356.96875 230.769531 C 357.300781 229.789063 357.640625 228.820313 357.980469 227.851563 C 353.910156 227.628906 349.921875 226.769531 346.058594 225.5 C 339.671875 223.371094 332.859375 224.75 326.28125 223.949219 C 326.949219 223.019531 327.828125 222.550781 328.929688 222.558594 C 334.648438 222.140625 340.550781 223.199219 346.109375 221.398438 C 351.058594 219.890625 356.078125 218.351563 361.320313 218.558594 C 361.539063 217.941406 361.980469 216.71875 362.199219 216.109375 C 356.96875 215.691406 352.070313 213.691406 346.941406 212.75 C 341.589844 212 336.140625 212.609375 330.78125 211.898438 C 331.191406 211.640625 332.03125 211.128906 332.449219 210.878906 C 338.441406 210.210938 344.609375 211.359375 350.488281 209.679688 C 355.449219 208.300781 360.488281 207.199219 365.621094 206.640625 C 365.820313 206.058594 366.230469 204.910156 366.441406 204.339844 C 362.421875 203.570313 358.421875 202.710938 354.449219 201.738281 C 348.28125 200.121094 341.851563 201.199219 335.578125 200.46875 C 335.949219 200.179688 336.679688 199.578125 337.050781 199.289063 C 343.460938 198.441406 350.148438 199.828125 356.371094 197.601563 C 360.589844 196.089844 365.011719 195.160156 369.519531 195.421875 C 369.949219 194.351563 370.390625 193.28125 370.828125 192.210938 C 363.789063 191.328125 357.210938 187.839844 349.980469 188.398438 C 346.800781 187.878906 342.75 189.578125 340.25 187.011719 C 347.128906 186.179688 354.261719 187.550781 360.941406 185.261719 C 365.070313 183.769531 369.429688 183.238281 373.75 182.640625 C 374.109375 182.210938 374.828125 181.351563 375.191406 180.921875 C 370.539063 180.558594 366.351563 178.441406 361.871094 177.410156 C 356.980469 176.800781 352.019531 177.160156 347.109375 176.789063 C 346.21875 176.789063 345.46875 176.25 344.769531 175.78125 C 351.460938 174.648438 358.441406 176.269531 364.980469 174.070313 C 369.28125 172.691406 373.699219 171.679688 378.230469 171.539063 C 378.421875 170.96875 378.789063 169.839844 378.96875 169.269531 C 373.480469 168.449219 368.589844 165.210938 362.96875 165.148438 C 358.980469 164.980469 355 164.839844 351.019531 164.738281 L 351.210938 162.96875 C 354.46875 162.949219 357.738281 162.949219 361.011719 162.878906 C 368.628906 163.269531 375.171875 158.179688 382.839844 158.609375 C 383.050781 157.941406 383.460938 156.609375 383.671875 155.949219 C 379.921875 155.46875 376.269531 154.460938 372.730469 153.179688 C 366.550781 151.050781 359.671875 153.441406 353.609375 151.019531 C 358.300781 150 363.140625 150.5 367.910156 150.148438 C 374.578125 150.078125 380.46875 146.070313 387.210938 146.351563 C 387.390625 145.769531 387.761719 144.628906 387.949219 144.058594 C 382.179688 143.25 376.859375 140.308594 370.96875 140.25 C 366.78125 140.03125 362.539063 140.410156 358.410156 139.53125 C 359.480469 138.878906 360.679688 138.511719 361.941406 138.558594 C 367.988281 138.238281 374.25 138.890625 380.050781 136.78125 C 383.710938 135.539063 387.53125 134.789063 391.398438 134.601563 C 391.621094 133.910156 392.070313 132.53125 392.289063 131.839844 C 387.039063 131.121094 382.261719 128.378906 376.921875 128.191406 C 372.578125 127.96875 368.230469 128.019531 363.878906 127.839844 L 363.828125 126.601563 C 370.550781 126.089844 377.488281 127.269531 383.988281 125.078125 C 387.761719 123.820313 391.699219 123.21875 395.570313 122.390625 C 395.878906 121.769531 396.480469 120.539063 396.78125 119.921875 C 392.699219 119.199219 388.851563 117.640625 384.839844 116.671875 C 379.171875 115.941406 373.410156 116.328125 367.761719 115.429688 C 370.359375 113.410156 373.929688 114.628906 376.960938 114.339844 "/>
<path style=" stroke:none;fill-rule:nonzero;fill:rgb(2.745056%,15.696716%,49.804688%);fill-opacity:1;" d="M 610.898438 114.300781 C 632.609375 111.949219 654.628906 108.359375 676.429688 111.820313 C 686.761719 113.480469 697.550781 117.199219 704.308594 125.640625 C 711.988281 134.988281 713.171875 147.921875 711.75 159.519531 C 696.960938 159.601563 682.179688 159.421875 667.398438 159.621094 C 667.558594 155.421875 667.519531 150.789063 664.820313 147.320313 C 660.808594 141.761719 653.558594 139.871094 647.011719 139.921875 C 632.769531 139.648438 618.679688 147.140625 610.871094 159.039063 C 605.429688 167.070313 601.980469 176.28125 599.429688 185.578125 C 598.058594 191.511719 596.609375 198.011719 599.078125 203.851563 C 601.53125 209.140625 607.351563 211.832031 612.878906 212.5 C 622.210938 213.53125 632.148438 212.269531 640.261719 207.28125 C 646.78125 203.300781 651.871094 197.410156 656.300781 191.269531 C 671.039063 191.308594 685.78125 191.21875 700.519531 191.320313 C 696.199219 198.238281 691.671875 205.039063 686.390625 211.261719 C 671.910156 228.011719 650.921875 238.730469 629 241.359375 C 616.109375 242.917969 603.019531 242.898438 590.148438 241.25 C 585.410156 240.667969 580.820313 239.109375 576 239.210938 C 569.160156 239.199219 562.859375 235.890625 556.039063 235.808594 C 551.21875 235.679688 546.398438 235.769531 541.578125 235.558594 C 542.070313 234.539063 542.859375 234.070313 543.96875 234.140625 C 550.988281 233.589844 558.230469 234.832031 565.058594 232.660156 C 562.929688 230.988281 561.109375 228.960938 559 227.28125 C 556.671875 227.019531 554.308594 227.128906 551.988281 226.917969 C 545.839844 226.480469 540.230469 223.101563 533.96875 223.53125 C 530.21875 223.191406 526.101563 224.289063 522.601563 222.601563 C 529.199219 220.699219 536.261719 222.832031 542.808594 220.679688 C 546.269531 219.621094 549.75 218.621094 553.308594 217.917969 C 552.839844 217.039063 552.390625 216.167969 551.941406 215.289063 C 547.558594 215.441406 543.261719 214.589844 539.121094 213.269531 C 532.289063 210.929688 525 211.949219 517.949219 211.28125 C 519.929688 209.050781 523.328125 210.261719 525.96875 209.917969 C 534.089844 210.550781 541.820313 207.699219 549.648438 206.089844 C 549.691406 205.5 549.769531 204.328125 549.808594 203.738281 C 544.789063 203.5 539.929688 202.21875 535.078125 201.03125 C 528.929688 199.410156 522.53125 200.570313 516.289063 199.75 C 516.980469 198.859375 517.871094 198.429688 518.96875 198.449219 C 525.238281 198.070313 531.75 198.960938 537.769531 196.710938 C 541.628906 195.28125 545.699219 194.679688 549.808594 194.601563 C 550.039063 193.839844 550.511719 192.308594 550.75 191.539063 C 545.160156 191.46875 539.890625 189.519531 534.53125 188.21875 C 528.871094 187.308594 523.101563 187.859375 517.398438 187.570313 C 517.550781 187.191406 517.871094 186.441406 518.019531 186.058594 C 525.320313 185.820313 532.851563 186.621094 539.859375 184.101563 C 543.890625 182.660156 548.171875 182.519531 552.359375 181.96875 C 552.679688 181.570313 553.320313 180.75 553.640625 180.351563 C 549.71875 179.78125 545.828125 179.058594 542.128906 177.609375 C 535.269531 175.121094 527.78125 177.371094 520.828125 175.449219 C 526.941406 173.5 533.589844 175.578125 539.800781 173.929688 C 545.359375 172.441406 550.898438 170.679688 556.738281 170.851563 C 557.101563 170.058594 557.46875 169.261719 557.839844 168.480469 C 553.429688 167.429688 549.261719 165.550781 544.808594 164.691406 C 539.078125 164.039063 533.28125 164.5 527.570313 163.71875 C 527.941406 163.441406 528.679688 162.859375 529.050781 162.578125 C 535.980469 161.761719 543.261719 163.160156 549.910156 160.488281 C 554.128906 158.789063 558.640625 158.101563 563.179688 157.96875 C 563.761719 157.039063 564.359375 156.101563 564.960938 155.171875 C 559.171875 154.589844 553.890625 151.539063 548.03125 151.539063 C 543.359375 151.421875 538.691406 151.460938 534.039063 151.089844 C 534.628906 150.570313 535.128906 149.699219 536.058594 149.808594 C 543.300781 149.210938 550.808594 150.269531 557.808594 147.851563 C 562.308594 146.28125 567.050781 145.53125 571.820313 145.648438 C 572.609375 144.769531 573.398438 143.878906 574.191406 142.988281 C 569.148438 141.839844 564.210938 140.011719 558.988281 139.921875 C 554.039063 139.769531 549.101563 139.78125 544.160156 139.628906 C 544.160156 139.320313 544.148438 138.691406 544.140625 138.378906 C 552.839844 137.859375 561.789063 138.839844 570.230469 136.230469 C 574.480469 135.011719 578.898438 134.511719 583.308594 134.300781 C 585.410156 132.679688 587.53125 131.070313 589.621094 129.421875 C 578.730469 126.191406 567.269531 127.910156 556.121094 127.011719 C 556.570313 126.738281 557.488281 126.179688 557.949219 125.898438 C 565.171875 125.488281 572.429688 125.910156 579.660156 125.570313 C 585.789063 125.050781 591.738281 123.308594 597.851563 122.648438 C 603.960938 122.160156 609.089844 118.429688 614.871094 116.71875 C 603.050781 116.058594 591.199219 116.359375 579.390625 115.609375 C 580.371094 114.730469 581.578125 114.261719 582.929688 114.410156 C 592.25 114.308594 601.578125 114.539063 610.898438 114.300781 "/>
<path style=" stroke:none;fill-rule:nonzero;fill:rgb(98.826599%,98.826599%,98.826599%);fill-opacity:1;" d="M 113.421875 143.390625 C 125.660156 143.769531 138.839844 142.019531 150.089844 147.941406 C 145.441406 149.121094 140.871094 150.75 136.078125 151.25 C 130.769531 151.679688 125.429688 151.359375 120.128906 151.800781 C 119.679688 152.109375 118.789063 152.71875 118.339844 153.019531 C 124.859375 153.691406 131.480469 152.941406 137.949219 154.011719 C 143.398438 155.640625 148.890625 157.339844 154.640625 157.351563 C 154.628906 157.960938 154.601563 159.199219 154.578125 159.820313 C 150.480469 160.140625 146.398438 160.871094 142.578125 162.46875 C 136.378906 165.101563 129.53125 163.730469 123.03125 164.511719 C 122.648438 164.789063 121.910156 165.351563 121.53125 165.628906 C 128.371094 166.828125 135.589844 165.300781 142.199219 167.828125 C 145.359375 169 148.570313 170.070313 151.921875 170.550781 C 151.671875 171.28125 151.410156 172.019531 151.160156 172.761719 C 146.339844 172.738281 141.648438 173.851563 137.101563 175.339844 C 130.539063 177.601563 123.480469 175.710938 116.808594 177.199219 C 122.960938 179.480469 129.828125 177.109375 136.070313 179.160156 C 139.859375 180.46875 143.660156 181.890625 147.730469 182.03125 C 147.390625 182.558594 146.699219 183.621094 146.359375 184.160156 C 141.5 184.011719 136.730469 185.011719 132.140625 186.511719 C 125.648438 188.699219 118.738281 187.519531 112.050781 188.140625 C 112.070313 188.511719 112.128906 189.238281 112.160156 189.609375 C 116.109375 189.628906 120.058594 189.589844 124.019531 189.671875 C 129.820313 189.730469 135.121094 192.371094 140.761719 193.371094 C 139.648438 194.441406 138.558594 195.539063 137.46875 196.648438 C 132.589844 196.441406 127.710938 197.039063 123.121094 198.730469 C 116.769531 201.101563 109.910156 199.738281 103.339844 200.558594 C 103.019531 200.871094 102.390625 201.5 102.070313 201.808594 C 109.75 202.261719 117.640625 201.390625 125.03125 204.078125 C 118.890625 206.28125 112.300781 205.628906 105.921875 206.171875 C 100.660156 206.640625 95.378906 206.421875 90.101563 206.480469 C 97.878906 185.449219 105.519531 164.371094 113.421875 143.390625 "/>
<path style=" stroke:none;fill-rule:nonzero;fill:rgb(98.826599%,98.826599%,98.826599%);fill-opacity:1;" d="M 435.71875 143.460938 C 447.949219 143.589844 461 142.171875 472.339844 147.738281 C 462.621094 151.929688 451.96875 151.539063 441.628906 151.75 C 441.53125 152.109375 441.339844 152.820313 441.25 153.179688 C 445.511719 153.238281 449.78125 153.421875 454.039063 153.46875 C 461.898438 153.199219 468.96875 157.648438 476.878906 157.320313 C 476.910156 157.941406 476.988281 159.171875 477.03125 159.789063 C 473.25 160.179688 469.441406 160.660156 465.910156 162.140625 C 459.308594 165.039063 451.960938 163.929688 444.96875 164.410156 C 444.820313 164.738281 444.53125 165.390625 444.378906 165.71875 C 451.230469 166.769531 458.46875 165.300781 465.03125 167.980469 C 468 169.109375 471.039063 170.039063 474.179688 170.550781 C 474.058594 171.101563 473.800781 172.199219 473.671875 172.761719 C 468.960938 172.78125 464.351563 173.730469 459.910156 175.230469 C 453.320313 177.570313 446.25 175.949219 439.46875 176.949219 C 440.859375 178.601563 443.109375 178.019531 444.980469 178.199219 C 450.101563 178.390625 455.429688 177.738281 460.289063 179.761719 C 463.519531 181.078125 466.949219 181.699219 470.378906 182.199219 C 469.96875 182.621094 469.148438 183.460938 468.738281 183.878906 C 464.320313 184.449219 459.800781 184.621094 455.570313 186.210938 C 449.578125 188.429688 443.128906 187.730469 436.890625 188 C 435.589844 187.78125 434.628906 188.46875 433.898438 189.429688 C 439.261719 189.839844 444.660156 189.320313 450 189.988281 C 454.410156 190.890625 458.660156 192.449219 463.089844 193.359375 C 462.019531 194.460938 460.949219 195.558594 459.898438 196.660156 C 456.628906 196.71875 453.300781 196.480469 450.121094 197.378906 C 446.109375 198.488281 442.171875 200.078125 437.960938 200.148438 C 433.839844 200.441406 429.660156 199.960938 425.589844 200.609375 C 425.289063 200.898438 424.679688 201.460938 424.371094 201.738281 C 432 202.449219 439.960938 201.148438 447.230469 204.171875 C 441.03125 206.351563 434.390625 205.558594 427.96875 206.191406 C 422.828125 206.621094 417.671875 206.460938 412.53125 206.429688 C 420.261719 185.441406 428.039063 164.46875 435.71875 143.460938 "/>
<path style=" stroke:none;fill-rule:nonzero;fill:rgb(84.764099%,16.868591%,13.719177%);fill-opacity:1;" d="M 489.359375 268.601563 C 491.941406 268.660156 494.539063 268.691406 497.128906 268.769531 C 492.730469 278.800781 487.769531 288.570313 483.128906 298.480469 C 480.449219 298.488281 477.78125 298.511719 475.109375 298.511719 C 479.769531 288.5 484.460938 278.5 489.359375 268.601563 "/>
<path style=" stroke:none;fill-rule:nonzero;fill:rgb(84.764099%,16.868591%,13.719177%);fill-opacity:1;" d="M 510.300781 268.761719 C 512.851563 268.53125 515.410156 268.691406 517.96875 268.730469 C 517.238281 270.519531 516.46875 272.289063 515.71875 274.070313 C 512.96875 274.128906 510.21875 274.140625 507.46875 274.121094 C 508.351563 272.308594 509.121094 270.410156 510.300781 268.761719 "/>
<path style=" stroke:none;fill-rule:nonzero;fill:rgb(84.764099%,16.868591%,13.719177%);fill-opacity:1;" d="M 631.089844 268.699219 C 633.71875 268.667969 636.351563 268.667969 638.980469 268.691406 C 638.339844 270.398438 637.839844 272.210938 636.761719 273.710938 C 634.21875 274.601563 631.339844 273.949219 628.679688 274.140625 C 629.488281 272.332031 630.300781 270.519531 631.089844 268.699219 "/>
<path style=" stroke:none;fill-rule:nonzero;fill:rgb(84.764099%,16.868591%,13.719177%);fill-opacity:1;" d="M 824.710938 268.660156 C 827.308594 268.667969 829.921875 268.667969 832.53125 268.699219 C 828.128906 278.761719 823.300781 288.628906 818.488281 298.511719 C 815.949219 298.488281 813.410156 298.488281 810.890625 298.5 C 814.800781 288.261719 820.140625 278.621094 824.710938 268.660156 "/>
<path style=" stroke:none;fill-rule:nonzero;fill:rgb(84.764099%,16.868591%,13.719177%);fill-opacity:1;" d="M 391.160156 298.460938 C 395.980469 288.53125 400.410156 278.398438 405.539063 268.621094 C 413.640625 269.039063 421.96875 267.71875 429.871094 270.070313 C 433.25 270.980469 435.441406 274.621094 434.539063 278.039063 C 432.710938 288.859375 422.671875 297.21875 411.898438 298.148438 C 405.011719 298.78125 398.070313 298.398438 391.160156 298.460938 "/>
<path style=" stroke:none;fill-rule:nonzero;fill:rgb(84.764099%,16.868591%,13.719177%);fill-opacity:1;" d="M 745.199219 268.648438 C 748.230469 268.667969 751.261719 268.691406 754.300781 268.699219 C 753.699219 276.109375 753.148438 283.511719 752.328125 290.890625 C 759.039063 283.628906 765.339844 276 771.96875 268.660156 C 774.808594 268.660156 777.648438 268.667969 780.511719 268.808594 C 771.941406 279.179688 762.078125 288.429688 753.101563 298.460938 C 750.421875 298.480469 747.738281 298.488281 745.070313 298.5 C 744.738281 288.558594 744.601563 278.582031 745.199219 268.648438 "/>
<path style=" stroke:none;fill-rule:nonzero;fill:rgb(98.826599%,98.826599%,98.826599%);fill-opacity:1;" d="M 411 274.109375 C 415.710938 274.550781 421.738281 272.449219 425.339844 276.429688 C 426.488281 280.75 423.761719 284.980469 421.238281 288.28125 C 416.550781 293.78125 408.628906 293.199219 402.101563 293.25 C 404.710938 286.710938 408.078125 280.511719 411 274.109375 "/>
<path style=" stroke:none;fill-rule:nonzero;fill:rgb(84.764099%,16.868591%,13.719177%);fill-opacity:1;" d="M 442.949219 283.96875 C 448.128906 277.019531 457.71875 274.410156 465.960938 276.460938 C 467.921875 277.050781 469.769531 278.460938 470.480469 280.441406 C 471.128906 283.539063 469.808594 286.582031 468.460938 289.300781 C 461.671875 289.25 454.878906 289.101563 448.101563 289.320313 C 448.089844 290.339844 448.070313 292.378906 448.058594 293.390625 C 450.011719 293.800781 451.988281 294.46875 454.019531 294.128906 C 456.109375 293.78125 457.808594 292.269531 459.910156 291.96875 C 462.109375 291.761719 464.320313 291.871094 466.519531 291.96875 C 462.71875 297.082031 456.078125 298.789063 450.039063 299.398438 C 446.308594 299.570313 441.621094 298.621094 439.910156 294.878906 C 438.609375 291 440.75 287.070313 442.949219 283.96875 "/>
<path style=" stroke:none;fill-rule:nonzero;fill:rgb(84.764099%,16.868591%,13.719177%);fill-opacity:1;" d="M 523.578125 276.5 C 526.539063 276.488281 529.5 276.488281 532.46875 276.5 C 532.128906 281.730469 531.710938 286.960938 531.238281 292.179688 C 535.820313 286.980469 540.449219 281.832031 544.871094 276.488281 C 547.648438 276.488281 550.429688 276.511719 553.21875 276.601563 C 546.328125 284.019531 539.300781 291.308594 532.179688 298.5 C 529.429688 298.488281 526.679688 298.480469 523.941406 298.480469 C 523.839844 291.148438 523.699219 283.832031 523.578125 276.5 "/>
<path style=" stroke:none;fill-rule:nonzero;fill:rgb(84.764099%,16.868591%,13.719177%);fill-opacity:1;" d="M 555.609375 287.71875 C 560.21875 277.378906 574.230469 272.660156 584.179688 277.949219 C 586.628906 281.519531 585.351563 285.839844 583.328125 289.261719 C 576.441406 289.238281 569.539063 289.109375 562.660156 289.390625 C 562.671875 290.859375 562.988281 292.25 563.628906 293.550781 C 566.261719 294.691406 569.320313 294.390625 571.828125 293.050781 C 574.851563 291.238281 578.441406 291.917969 581.769531 291.910156 C 577.078125 297.160156 569.878906 299.558594 562.960938 299.289063 C 560.101563 299 556.71875 298.300781 555.199219 295.582031 C 553.78125 293.148438 554.46875 290.121094 555.609375 287.71875 "/>
<path style=" stroke:none;fill-rule:nonzero;fill:rgb(84.764099%,16.868591%,13.719177%);fill-opacity:1;" d="M 606.03125 280.011719 C 609.441406 277.46875 613.421875 275.660156 617.78125 275.960938 C 616.871094 277.898438 615.949219 279.839844 615.050781 281.789063 C 611.300781 281.941406 606.890625 282.019531 604.398438 285.320313 C 601.71875 289.417969 600.03125 294.082031 597.878906 298.460938 C 595.160156 298.480469 592.441406 298.488281 589.71875 298.488281 C 593.101563 291.140625 596.761719 283.929688 600.101563 276.570313 C 602.601563 276.519531 605.109375 276.511719 607.621094 276.519531 C 607.078125 277.679688 606.550781 278.839844 606.03125 280.011719 "/>
<path style=" stroke:none;fill-rule:nonzero;fill:rgb(84.764099%,16.868591%,13.719177%);fill-opacity:1;" d="M 655.050781 278.839844 C 659.820313 276.289063 665.679688 274.898438 670.878906 276.96875 C 673.160156 278.03125 672.730469 281.058594 671.96875 282.980469 C 669.761719 288.199219 666.96875 293.148438 664.871094 298.417969 C 662.171875 298.480469 659.46875 298.488281 656.789063 298.488281 C 658.699219 292.660156 662.71875 287.640625 663.75 281.511719 C 660.089844 281 655.480469 280.648438 653 284.011719 C 650 288.460938 648.300781 293.640625 645.859375 298.410156 C 643.160156 298.480469 640.449219 298.488281 637.761719 298.5 C 641.078125 291.109375 644.691406 283.859375 648.101563 276.511719 C 650.691406 276.488281 653.28125 276.488281 655.890625 276.488281 C 655.679688 277.070313 655.261719 278.25 655.050781 278.839844 "/>
<path style=" stroke:none;fill-rule:nonzero;fill:rgb(84.764099%,16.868591%,13.719177%);fill-opacity:1;" d="M 679.679688 289.980469 C 682.339844 280.761719 692.398438 274.230469 701.921875 276.121094 C 703.660156 276.28125 704.808594 277.699219 706.140625 278.691406 C 706.5 277.960938 706.878906 277.238281 707.261719 276.519531 C 709.78125 276.511719 712.308594 276.511719 714.839844 276.558594 C 711.601563 283.75 708.109375 290.832031 704.671875 297.929688 C 702.71875 302.179688 698.839844 305.519531 694.199219 306.378906 C 689.871094 306.96875 685.429688 308.53125 681.101563 307.160156 C 678.429688 306.738281 675.789063 305.699219 674.5 303.160156 C 674.761719 302.511719 675.289063 301.210938 675.550781 300.550781 C 678.199219 300.570313 680.851563 300.550781 683.511719 300.5 C 683.878906 301.011719 684.609375 302.050781 684.96875 302.558594 C 687.851563 302.558594 690.988281 303.058594 693.640625 301.589844 C 695.671875 300.140625 696.769531 297.820313 698.128906 295.800781 C 693.421875 298.429688 687.46875 299.582031 682.390625 297.359375 C 679.679688 296.050781 678.898438 292.699219 679.679688 289.980469 "/>
<path style=" stroke:none;fill-rule:nonzero;fill:rgb(84.764099%,16.868591%,13.719177%);fill-opacity:1;" d="M 779.390625 283.351563 C 783.28125 276.558594 791.96875 275.199219 799.101563 275.988281 C 801.699219 276.191406 805.648438 276.738281 806.058594 279.941406 C 804.949219 286.488281 799.121094 291.621094 799.5 298.488281 C 796.75 298.480469 794.011719 298.488281 791.28125 298.511719 C 791.171875 297.949219 790.949219 296.820313 790.839844 296.25 C 786.25 298.820313 780.378906 300.738281 775.351563 298.339844 C 772.96875 297.320313 773.210938 294.191406 774.300781 292.289063 C 776.089844 288.140625 780.730469 286.480469 784.871094 285.820313 C 789.050781 285.210938 793.328125 284.960938 797.320313 283.429688 C 797.398438 282.851563 797.558594 281.699219 797.628906 281.128906 C 794.5 280.03125 790.839844 279.910156 788.179688 282.160156 C 785.738281 284.320313 782.320313 283.28125 779.390625 283.351563 "/>
<path style=" stroke:none;fill-rule:nonzero;fill:rgb(84.764099%,16.868591%,13.719177%);fill-opacity:1;" d="M 841.589844 276.46875 C 844.140625 276.5 846.679688 276.511719 849.238281 276.550781 C 847.308594 282.308594 843.789063 287.398438 842.230469 293.300781 C 846.339844 295.039063 851.828125 293.917969 854.03125 289.769531 C 856.339844 285.410156 858.28125 280.871094 860.449219 276.449219 C 863.109375 276.488281 865.789063 276.5 868.46875 276.53125 C 865.011719 283.859375 861.511719 291.167969 858.039063 298.488281 C 855.460938 298.488281 852.878906 298.488281 850.308594 298.488281 C 850.488281 297.910156 850.851563 296.761719 851.03125 296.191406 C 846.089844 298.890625 839.648438 300.570313 834.460938 297.640625 C 832.5 295.71875 833.808594 292.917969 834.679688 290.820313 C 836.96875 286.03125 839.21875 281.21875 841.589844 276.46875 "/>
<path style=" stroke:none;fill-rule:nonzero;fill:rgb(84.764099%,16.868591%,13.719177%);fill-opacity:1;" d="M 872.890625 291.941406 C 874.75 278.648438 892.488281 271.269531 903.410156 278.691406 C 904.519531 282.308594 903.789063 286.148438 901.679688 289.261719 C 894.96875 289.21875 888.261719 289.21875 881.550781 289.25 C 881.480469 290.679688 881.460938 292.109375 881.460938 293.550781 C 884.269531 294.101563 887.359375 294.710938 890.011719 293.230469 C 893.050781 291.320313 896.699219 291.820313 900.109375 291.949219 C 895.179688 297.582031 887.230469 299.96875 879.949219 299.121094 C 876.28125 298.832031 872.28125 296.019531 872.890625 291.941406 "/>
<path style=" stroke:none;fill-rule:nonzero;fill:rgb(84.764099%,16.868591%,13.719177%);fill-opacity:1;" d="M 506.328125 276.570313 C 508.980469 276.511719 511.640625 276.5 514.300781 276.539063 C 511.109375 283.949219 507.421875 291.140625 504.039063 298.480469 C 501.339844 298.480469 498.640625 298.488281 495.960938 298.511719 C 499.300781 291.140625 502.890625 283.890625 506.328125 276.570313 "/>
<path style=" stroke:none;fill-rule:nonzero;fill:rgb(84.764099%,16.868591%,13.719177%);fill-opacity:1;" d="M 617.039063 298.480469 C 620.519531 291.121094 624.019531 283.769531 627.609375 276.460938 C 630.261719 276.488281 632.910156 276.511719 635.558594 276.53125 C 632.101563 283.851563 628.539063 291.128906 625.171875 298.488281 C 622.460938 298.5 619.75 298.5 617.039063 298.480469 "/>
<path style=" stroke:none;fill-rule:nonzero;fill:rgb(98.826599%,98.826599%,98.826599%);fill-opacity:1;" d="M 450.199219 285.128906 C 452.890625 281.039063 458.269531 279.488281 462.609375 281.929688 C 462.339844 283.070313 462.058594 284.210938 461.789063 285.359375 C 457.921875 285.371094 454.050781 285.398438 450.199219 285.128906 "/>
<path style=" stroke:none;fill-rule:nonzero;fill:rgb(98.826599%,98.826599%,98.826599%);fill-opacity:1;" d="M 564.921875 285.191406 C 567.46875 282.121094 571.878906 279.429688 575.878906 281.300781 C 577.699219 281.460938 577.980469 284.082031 576.710938 285.121094 C 572.800781 285.660156 568.839844 285.261719 564.921875 285.191406 "/>
<path style=" stroke:none;fill-rule:nonzero;fill:rgb(98.826599%,98.826599%,98.826599%);fill-opacity:1;" d="M 687.910156 291.898438 C 687.621094 284.960938 695.480469 278.230469 702.089844 281.871094 C 705.011719 289.167969 694.101563 297.058594 687.910156 291.898438 "/>
<path style=" stroke:none;fill-rule:nonzero;fill:rgb(98.826599%,98.826599%,98.826599%);fill-opacity:1;" d="M 883.570313 285.179688 C 885.878906 281.769531 890.75 279.339844 894.648438 281.449219 C 896.371094 282.03125 895.410156 283.980469 895.558594 285.308594 C 891.550781 285.320313 887.550781 285.429688 883.570313 285.179688 "/>
<path style=" stroke:none;fill-rule:nonzero;fill:rgb(98.826599%,98.826599%,98.826599%);fill-opacity:1;" d="M 784.191406 290.21875 C 787.769531 289.011719 791.53125 288.480469 795.238281 287.820313 C 793.25 292.980469 787.480469 296.019531 782.128906 294.199219 C 781.621094 292.539063 782.558594 290.769531 784.191406 290.21875 "/>
</g>
</svg>
